<?xml version="1.0" encoding="UTF-8" standalone="no"?>
<!-- Generator: Adobe Illustrator 15.1.0, SVG Export Plug-In . SVG Version: 6.00 Build 0)  -->

<svg
   xmlns:dc="http://purl.org/dc/elements/1.1/"
   xmlns:cc="http://creativecommons.org/ns#"
   xmlns:rdf="http://www.w3.org/1999/02/22-rdf-syntax-ns#"
   xmlns:svg="http://www.w3.org/2000/svg"
   xmlns="http://www.w3.org/2000/svg"
   xmlns:sodipodi="http://sodipodi.sourceforge.net/DTD/sodipodi-0.dtd"
   xmlns:inkscape="http://www.inkscape.org/namespaces/inkscape"
   version="1.1"
   id="Ebene_1"
   x="0px"
   y="0px"
   width="65.197px"
   height="65.195px"
   viewBox="-311.099 82.902 65.197 65.195"
   enable-background="new -311.099 82.902 65.197 65.195"
   xml:space="preserve"
   inkscape:version="0.48.3.1 r9886"
   sodipodi:docname="smiley-quiet.svg"><metadata
     id="metadata9"><rdf:RDF><cc:Work
         rdf:about=""><dc:format>image/svg+xml</dc:format><dc:type
           rdf:resource="http://purl.org/dc/dcmitype/StillImage" /></cc:Work></rdf:RDF></metadata><defs
     id="defs7" /><sodipodi:namedview
     pagecolor="#ffffff"
     bordercolor="#666666"
     borderopacity="1"
     objecttolerance="10"
     gridtolerance="10"
     guidetolerance="10"
     inkscape:pageopacity="0"
     inkscape:pageshadow="2"
     inkscape:window-width="1920"
     inkscape:window-height="1032"
     id="namedview5"
     showgrid="false"
     inkscape:zoom="4.33"
     inkscape:cx="-28.311695"
     inkscape:cy="32.5975"
     inkscape:window-x="0"
     inkscape:window-y="-5"
     inkscape:window-maximized="1"
     inkscape:current-layer="Ebene_1" /><path
     fill="rgb(255,227,0)"
     d="M-278.509,90.5c-13.802,0-24.991,11.189-24.991,24.992c0,13.802,11.189,24.992,24.991,24.992c13.803,0,24.991-11.189,24.991-24.992S-264.706,90.5-278.509,90.5z M-266.241,104.216c1.134,0,2.052,0.918,2.052,2.052c0,1.133-0.918,2.051-2.052,2.051s-2.052-0.918-2.052-2.051C-268.293,105.134-267.375,104.216-266.241,104.216z M-291.241,104.216c1.133,0,2.051,0.918,2.051,2.052c0,1.133-0.918,2.051-2.051,2.051c-1.133,0-2.052-0.918-2.052-2.051C-293.293,105.134-292.375,104.216-291.241,104.216z M-261.217,125.661h-34.374c-0.739,0-1.339-0.71-1.339-1.587s0.6-1.588,1.339-1.588h34.374c0.74,0,1.341,0.711,1.341,1.588S-260.477,125.661-261.217,125.661z"
     id="path3"
     style="fill:#ffc300;fill-opacity:1" /></svg>